<?xml version="1.0" encoding="UTF-8"?><svg version="1.1" viewBox="0 0 24 24" xmlns="http://www.w3.org/2000/svg" xmlns:xlink="http://www.w3.org/1999/xlink"><g stroke-linecap="round" stroke-width="1" stroke="#000" fill="none" stroke-linejoin="round"><path d="M13.75 15.965l3.1956e-08-1.09788e-07c-.321508 1.10457-1.47757 1.73937-2.58214 1.41786 -.683971-.199084-1.21877-.733887-1.41786-1.41786 0-.552.895-1 2-1 1.105 0 2 .448 2 1Z"></path><path d="M16.25 11.215h-1.09278e-08c.138071-6.03528e-09.25.111929.25.25"></path><path d="M16 11.465l3.55271e-15 3.7749e-08c-2.08482e-08-.138071.111929-.25.25-.25"></path><path d="M16.25 11.715h-1.09278e-08c-.138071-6.03528e-09-.25-.111929-.25-.25 0 0 0 0 0 0"></path><path d="M16.5 11.465v0c0 .138071-.111929.25-.25.25"></path><path d="M7.25 11.215h-1.09278e-08c.138071-6.03528e-09.25.111929.25.25"></path><path d="M7 11.465l2.66454e-15 3.7749e-08c-2.08482e-08-.138071.111929-.25.25-.25"></path><path d="M7.25 11.715h-1.09278e-08c-.138071-6.03528e-09-.25-.111929-.25-.25 0 0 0 0 0 0"></path><path d="M7.5 11.465v0c0 .138071-.111929.25-.25.25"></path><path d="M8.34 19.284l1.56406e-08 5.40651e-09c1.37594.475622 2.87692-.254228 3.35254-1.63017 .0215027-.0622055.040668-.125195.0574557-.188835"></path><path d="M15.16 19.284l-2.33442e-07 8.06941e-08c-1.37594.475622-2.87692-.254228-3.35254-1.63017 -.0215027-.0622055-.040668-.125195-.0574557-.188835"></path><line x1="11.75" x2="11.75" y1="4.51" y2="9.01"></line><line x1="8.75" x2="8.75" y1="5.11" y2="7.97"></line><line x1="14.75" x2="14.75" y1="5.11" y2="7.97"></line><path d="M8.946 5.03l-5.584-3.351 7.80377e-09 4.68077e-09c-.47362-.284082-1.08786-.130431-1.37194.343189 -.102381.170688-.151496.368046-.141059.566811l.9 5.623"></path><path d="M14.554 5.03l5.584-3.351 -8.27745e-08 4.96489e-08c.47362-.284082 1.08786-.130431 1.37194.343189 .102381.170688.151496.368046.141059.566811l-.9 5.623"></path><path d="M17.74 20.836l-2.02137e-07 1.21586e-07c-1.80733 1.08711-3.88102 1.65106-5.99 1.629l-3.29363e-07 3.44498e-09c-2.10898.0220589-4.18266-.541887-5.99-1.629"></path><path d="M20.645 13.932c-.619-4.6-3.931-9.467-8.895-9.467 -4.964 0-8.276 4.872-8.895 9.467"></path><line x1="16.75" x2="23.25" y1="15.97" y2="15.97"></line><line x1="16.25" x2="22.25" y1="17.97" y2="20.47"></line><line x1="6.75" x2=".75" y1="16.47" y2="15.47"></line><line x1="6.75" x2="1.25" y1="18.47" y2="20.47"></line></g></svg>