<?xml version="1.0" encoding="UTF-8"?><svg version="1.1" viewBox="0 0 24 24" xmlns="http://www.w3.org/2000/svg" xmlns:xlink="http://www.w3.org/1999/xlink"><g stroke-linecap="round" stroke-width="1" stroke="#000" fill="none" stroke-linejoin="round"><ellipse cx="12" rx="2" ry="1.5" cy="15.75"></ellipse><path d="M14.75 10.75h-1.09278e-08c.138071-6.03528e-09.25.111929.25.25"></path><path d="M14.5 11l3.55271e-15 3.7749e-08c-2.08482e-08-.138071.111929-.25.25-.25"></path><path d="M14.75 11.25h-1.09278e-08c-.138071-6.03528e-09-.25-.111929-.25-.25 0 0 0 0 0 0"></path><path d="M15 11v0c0 .138071-.111929.25-.25.25"></path><path d="M9.25 10.75h-1.09278e-08c.138071-6.03528e-09.25.111929.25.25"></path><path d="M9 11l3.55271e-15 3.7749e-08c-2.08482e-08-.138071.111929-.25.25-.25"></path><path d="M9.25 11.25h-1.09278e-08c-.138071-6.03528e-09-.25-.111929-.25-.25 0 0 0 0 0 0"></path><path d="M9.5 11v0c0 .138071-.111929.25-.25.25"></path><path d="M15.731 20.75l-2.4263e-07-1.41893e-08c-1.92568-.112616-3.4957-1.58543-3.731-3.5l-8.79967e-08 7.16016e-07c-.235296 1.91457-1.80532 3.38738-3.731 3.5"></path><path d="M19.328 11.958c-.749 6.942-3.85 10.292-7.328 10.292 -3.478 0-6.579-3.35-7.328-10.292"></path><path d="M16.732 5.9c0 0 1.184 7.1 4.141 6.507 2.461-.493 4.141-8.874.592-10.057l-4.48778e-08-1.73855e-08c-1.90181-.736752-4.01019-.736752-5.912 3.4771e-08l-1.09682e-06-3.84214e-07c-2.2982-.805058-4.8018-.805057-7.1 7.68429e-07l-4.38497e-07-1.69599e-07c-1.9033-.736145-4.0127-.736145-5.916 3.39198e-07 -3.549 1.183-1.869 9.564.592 10.057 2.955.592999 4.139-6.507 4.139-6.507"></path></g></svg>